<svg xmlns="http://www.w3.org/2000/svg" xmlns:xlink="http://www.w3.org/1999/xlink" viewBox="0,0,256,256" width="48px" height="48px" fill-rule="nonzero"><g fill="none" fill-rule="nonzero" stroke="none" stroke-width="none" stroke-linecap="butt" stroke-linejoin="none" stroke-miterlimit="10" stroke-dasharray="" stroke-dashoffset="0" font-family="none" font-weight="none" font-size="none" text-anchor="none" style="mix-blend-mode: normal"><path transform="scale(5.33333,5.33333)" d="M18.974,22.216l13.916,19.662c-2.684,1.345 -5.698,2.122 -8.89,2.122c-11,0 -20,-9 -20,-20c0,-11 9,-20 20,-20c11,0 20,9 20,20c0,6.735 -3.383,12.709 -8.525,16.337l-16.777,-23.704c-0.377,-0.533 -1.054,-0.761 -1.679,-0.563c-0.622,0.199 -1.045,0.777 -1.045,1.43v14c0,0.828 0.671,1.5 1.5,1.5c0.829,0 1.5,-0.672 1.5,-1.5z" id="strokeMainSVG" fill-opacity="0.72157" fill="#ffffff" stroke-opacity="0.72157" stroke="#ffffff" stroke-width="5" stroke-linejoin="round"></path><g transform="scale(5.33333,5.33333)" fill="#212121" stroke="none" stroke-width="1" stroke-linejoin="miter"><path d="M18.974,31.5c0,0.828 -0.671,1.5 -1.5,1.5c-0.829,0 -1.5,-0.672 -1.5,-1.5v-14c0,-0.653 0.423,-1.231 1.045,-1.43c0.625,-0.198 1.302,0.03 1.679,0.563l16.777,23.704c5.142,-3.628 8.525,-9.602 8.525,-16.337c0,-11 -9,-20 -20,-20c-11,0 -20,9 -20,20c0,11 9,20 20,20c3.192,0 6.206,-0.777 8.89,-2.122l-13.916,-19.662zM28.974,16.5c0,-0.828 0.671,-1.5 1.5,-1.5c0.829,0 1.5,0.672 1.5,1.5v13.84l-3,-4.227z"></path></g></g></svg>